<svg xmlns="http://www.w3.org/2000/svg" xmlns:xlink="http://www.w3.org/1999/xlink" xmlns:svgjs="http://svgjs.com/svgjs" width="62" height="62"><svg width="62" height="62" viewBox="0 0 62 62" fill="none" xmlns="http://www.w3.org/2000/svg"><g clip-path="url(#clip0_318_3)" fill="#0266C1"><path d="M30.419 21.806l8.066-8.203 16.543 17.568 6.288 6.63-.102.412c-.172.7-.353 1.433-.581 2.118-1.436 4.716-4.033 9.023-7.656 12.646-5.879 5.879-13.672 9.091-21.943 9.091S14.97 58.856 9.092 52.977C3.212 47.098 0 39.374 0 31.034c0-8.34 3.213-16.064 9.092-21.942C14.97 3.212 22.695 0 31.034 0c8.271 0 16.064 3.213 21.943 9.092 5.879 5.878 9.091 13.671 9.091 21.942 0 1.094-.068 2.256-.205 3.35l-7.246-7.656C52.635 15.585 42.792 7.04 31.034 7.04c-13.261 0-23.993 10.732-24.062 23.993 0 13.261 10.732 23.994 23.994 23.994 10.322 0 19.072-6.494 22.49-15.586L38.485 24.54l-2.735 2.735-5.332-5.469z"/><path d="M28.3 34.52l-5.47 5.742H11.416l16.816-16.61 16.953 16.61H34.52L28.3 34.52z"/></g><defs><clipPath id="SvgjsClipPath1000"><path fill="#fff" d="M0 0h62v62H0z"/></clipPath></defs></svg><style>@media (prefers-color-scheme:light){:root{filter:none}}</style></svg>