<svg width="8" height="12" viewBox="0 0 8 12" fill="none" xmlns="http://www.w3.org/2000/svg"><path fill-rule="evenodd" clip-rule="evenodd" d="M2.79 8.805A5.681 5.681 0 010 7.267L.874 5.99c.396.445.879.801 1.417 1.045.539.243 1.12.369 1.709.368A4.178 4.178 0 007.126 5.99L8 7.267a5.681 5.681 0 01-2.79 1.538L6.973 12H5.257L4 9.725 2.743 12H1.026L2.79 8.805zM4 0C2.35 0 1.01 1.373 1.01 3.064c0 1.69 1.34 3.064 2.99 3.064 1.65 0 2.99-1.373 2.99-3.064S5.65 0 4 0zm0 1.532c.825 0 1.495.686 1.495 1.532 0 .845-.67 1.532-1.495 1.532-.825 0-1.495-.687-1.495-1.532 0-.846.67-1.532 1.495-1.532z" fill="#fff"/></svg>