<svg xmlns="http://www.w3.org/2000/svg"><symbol id="left-arrow" viewBox="0 0 14 8"><path fill-rule="evenodd" clip-rule="evenodd" d="M3.578.464L.396 3.646a.5.5 0 000 .708l3.182 3.182a.5.5 0 10.708-.708L1.957 4.5H13.75v-1H1.957l2.329-2.328a.5.5 0 10-.708-.708z"/></symbol><symbol id="right-arrow" viewBox="0 0 14 8"><path fill-rule="evenodd" clip-rule="evenodd" d="M10.422.464l3.182 3.182a.5.5 0 010 .708l-3.182 3.182a.5.5 0 01-.708-.708L12.043 4.5H.25v-1h11.793L9.714 1.172a.5.5 0 11.708-.708z"/></symbol><symbol id="place-ic" viewBox="0 0 9 12"><path d="M4.5 0C2.019 0 0 1.982 0 4.418c0 .635.132 1.242.394 1.803 1.125 2.417 3.282 4.97 3.916 5.694a.252.252 0 00.38 0c.634-.725 2.791-3.276 3.916-5.694A4.241 4.241 0 009 4.418C9 1.982 6.981 0 4.5 0zm0 6.713c-1.289 0-2.338-1.03-2.338-2.295 0-1.266 1.049-2.295 2.338-2.295 1.289 0 2.337 1.03 2.337 2.295S5.79 6.713 4.5 6.713z"/></symbol><symbol id="sun-ic" viewBox="0 0 22 22"><path d="M15.84 7.1a5.548 5.548 0 00-3.9-1.63c-1.513 0-2.91.612-3.899 1.63a5.548 5.548 0 00-1.63 3.9c0 1.513.64 2.91 1.63 3.9a5.55 5.55 0 003.9 1.63c1.513 0 2.91-.612 3.899-1.63a5.548 5.548 0 001.63-3.9c0-1.513-.612-2.91-1.63-3.9zm-1.048 6.752a4.025 4.025 0 01-2.852 1.164 4.025 4.025 0 01-2.851-1.164A4.026 4.026 0 017.925 11c0-1.106.436-2.124 1.164-2.852a4.025 4.025 0 012.851-1.164c1.106 0 2.125.437 2.852 1.164A4.025 4.025 0 0115.956 11a4.026 4.026 0 01-1.164 2.852zm7.392-3.609h-2.24a.77.77 0 00-.758.757c0 .407.35.757.757.757h2.24A.77.77 0 0022.94 11a.77.77 0 00-.756-.757zM11.94 18.246a.77.77 0 00-.756.757v2.24a.77.77 0 00.756.757.77.77 0 00.757-.757v-2.24a.77.77 0 00-.757-.757zm7.77-.524l-1.6-1.6c-.262-.291-.757-.291-1.048 0a.738.738 0 000 1.047l1.6 1.6a.738.738 0 001.048 0 .738.738 0 000-1.047zM11.94 0a.77.77 0 00-.756.757v2.24a.77.77 0 00.756.757.77.77 0 00.757-.757V.757A.77.77 0 0011.94 0zm7.8 3.23a.738.738 0 00-1.048 0l-1.6 1.6a.738.738 0 000 1.048c.261.291.756.291 1.047 0l1.6-1.6a.738.738 0 000-1.048zM3.938 10.243H1.697A.77.77 0 00.94 11c0 .407.32.757.757.757h2.24A.77.77 0 004.695 11a.77.77 0 00-.756-.757zm2.852 5.879c-.262-.291-.757-.291-1.048 0l-1.6 1.6a.738.738 0 000 1.048.738.738 0 001.047 0l1.6-1.6a.738.738 0 000-1.048zm0-11.292l-1.6-1.6a.738.738 0 00-1.049 0 .738.738 0 000 1.048l1.601 1.6a.738.738 0 001.048 0 .738.738 0 000-1.047z"/></symbol><symbol id="moon-ic" viewBox="0 0 20 20"><path d="M19.527 11.382a.7.7 0 00-.588.128 7.495 7.495 0 01-2.274 1.334 7.1 7.1 0 01-2.582.462A7.503 7.503 0 018.767 11.1a7.556 7.556 0 01-2.198-5.335c0-.872.153-1.718.409-2.488.28-.82.69-1.565 1.227-2.206a.656.656 0 00-.103-.923.701.701 0 00-.588-.128C5.342.61 3.45 1.918 2.096 3.662A10.18 10.18 0 000 9.843a10.14 10.14 0 002.965 7.182A10.066 10.066 0 0010.12 20c2.352 0 4.524-.82 6.263-2.18a10.118 10.118 0 003.578-5.617c.128-.385-.077-.744-.435-.821zm-3.91 5.36a8.715 8.715 0 01-5.444 1.899c-2.429 0-4.627-1-6.211-2.59A8.817 8.817 0 011.38 9.816c0-2.026.665-3.872 1.815-5.36a8.795 8.795 0 012.94-2.462 8.739 8.739 0 00-.359.872c-.332.923-.485 1.898-.485 2.924a8.88 8.88 0 002.581 6.258 8.816 8.816 0 006.237 2.59 8.53 8.53 0 003.041-.538c.333-.128.665-.257.972-.41a9.324 9.324 0 01-2.505 3.052z"/></symbol><symbol id="vk-ic" viewBox="0 0 12 7"><path fill-rule="evenodd" clip-rule="evenodd" d="M6.536 7C2.436 7 .097 4.372 0 0h2.054c.067 3.209 1.581 4.569 2.78 4.849V0h1.934v2.768C7.953 2.648 9.196 1.388 9.616 0h1.934c-.322 1.71-1.671 2.97-2.63 3.49.96.42 2.495 1.52 3.08 3.51H9.872c-.458-1.331-1.597-2.361-3.104-2.501V7h-.232z"/></symbol><symbol id="tg-ic" viewBox="0 0 11 9"><path fill-rule="evenodd" clip-rule="evenodd" d="M6.663 1.362A485.31 485.31 0 00.756 3.875c-.479.188-.73.372-.753.552-.039.304.347.424.873.588l.22.069c.518.166 1.214.36 1.575.368.33.007.695-.127 1.099-.4 2.76-1.84 4.183-2.768 4.273-2.79.063-.013.15-.031.21.022.059.052.053.15.047.176-.038.161-1.554 1.552-2.338 2.272a23.95 23.95 0 00-.454.42c-.079.082-.16.158-.237.232-.48.457-.84.8.02 1.36.414.269.744.491 1.074.713.36.243.72.485 1.186.786.119.077.232.156.342.234.42.296.797.561 1.262.518.272-.024.55-.275.693-1.025.336-1.77.995-5.608 1.148-7.189a1.736 1.736 0 00-.018-.394.419.419 0 00-.143-.27.666.666 0 00-.393-.117c-.38.006-.966.207-3.779 1.363v-.001z"/></symbol><symbol id="ok-ic" viewBox="0 0 8 12"><path fill-rule="evenodd" clip-rule="evenodd" d="M2.79 8.805A5.681 5.681 0 010 7.267L.874 5.99c.396.445.879.801 1.417 1.045.539.243 1.12.369 1.709.368A4.178 4.178 0 007.126 5.99L8 7.267a5.681 5.681 0 01-2.79 1.538L6.973 12H5.257L4 9.725 2.743 12H1.026L2.79 8.805zM4 0C2.35 0 1.01 1.373 1.01 3.064c0 1.69 1.34 3.064 2.99 3.064 1.65 0 2.99-1.373 2.99-3.064S5.65 0 4 0zm0 1.532c.825 0 1.495.686 1.495 1.532 0 .845-.67 1.532-1.495 1.532-.825 0-1.495-.687-1.495-1.532 0-.846.67-1.532 1.495-1.532z"/></symbol></svg>