<svg width="11" height="9" viewBox="0 0 11 9" fill="none" xmlns="http://www.w3.org/2000/svg"><path fill-rule="evenodd" clip-rule="evenodd" d="M6.663 1.362A485.31 485.31 0 00.756 3.875c-.479.188-.73.372-.753.552-.039.304.347.424.873.588l.22.069c.518.166 1.214.36 1.575.368.33.007.695-.127 1.099-.4 2.76-1.84 4.183-2.768 4.273-2.79.063-.013.15-.031.21.022.059.052.053.15.047.176-.038.161-1.554 1.552-2.338 2.272a23.95 23.95 0 00-.454.42c-.079.082-.16.158-.237.232-.48.457-.84.8.02 1.36.414.269.744.491 1.074.713.36.243.72.485 1.186.786.119.077.232.156.342.234.42.296.797.561 1.262.518.272-.024.55-.275.693-1.025.336-1.77.995-5.608 1.148-7.189a1.736 1.736 0 00-.018-.394.419.419 0 00-.143-.27.666.666 0 00-.393-.117c-.38.006-.966.207-3.779 1.363v-.001z" fill="#fff"/></svg>