<svg width="25" height="25" viewBox="0 0 25 25" fill="none" xmlns="http://www.w3.org/2000/svg"><path d="M23.625 17.637l-4.515-5.165h2.182a.461.461 0 00.364-.742l-3.624-4.764h1.844a.461.461 0 00.346-.765l-4.436-5.045a.461.461 0 00-.692 0l-4.44 5.04a.461.461 0 00.345.77h1.868L11.75 8.423 8.763 5.025a.461.461 0 00-.692 0L4.276 9.336a.461.461 0 00.346.766h1.462l-3.034 3.97a.461.461 0 00.364.733H5.12l-3.749 4.312a.461.461 0 00.346.76h5.1v3.228c0 .494.4.895.895.895h1.406a.895.895 0 00.9-.89v-3.232h3.826v3.227c0 .494.401.895.895.895h1.406c.495 0 .895-.4.895-.895v-4.703h6.239a.461.461 0 00.346-.765zm-14.53 5.44l-1.356.028-.027-3.227h1.383v3.2zm4.75-4.122H2.732l3.771-4.302a.461.461 0 00-.355-.77H4.35l3.034-3.97a.461.461 0 00-.364-.743H5.637l2.766-3.15 2.767 3.141-1.946 2.573a.461.461 0 00.364.743h2.186L7.26 17.64a.461.461 0 00.346.766h6.239v.548zm2.273 4.114l-1.351.036-.028-4.703h1.383l-.004 4.666zm-7.498-5.59l4.514-5.164a.461.461 0 00-.345-.765h-2.265l3.643-4.768a.461.461 0 00-.364-.738h-1.766l3.421-3.883 3.403 3.883h-1.78a.461.461 0 00-.364.742l3.62 4.764h-2.246a.461.461 0 00-.345.765l4.514 5.165H8.62z" fill="#2D383F"/></svg>