<svg xmlns="http://www.w3.org/2000/svg" version="1.1" xmlns:xlink="http://www.w3.org/1999/xlink" xmlns:svgjs="http://svgjs.com/svgjs" width="62" height="62"><svg width="62" height="62" viewBox="0 0 62 62" fill="none" xmlns="http://www.w3.org/2000/svg">
<g clip-path="url(#clip0_318_3)">
<path d="M30.419 21.806L38.4851 13.6031L55.0276 31.1709L61.3164 37.8015C61.2826 37.937 61.2487 38.0744 61.2145 38.2129C61.0418 38.9135 60.8611 39.6459 60.6329 40.3308C59.1974 45.0474 56.5998 49.3539 52.9768 52.9768C47.0981 58.8556 39.3054 62.0684 31.0342 62.0684C22.763 62.0684 14.9702 58.8556 9.09151 52.9768C3.21279 47.0981 0 39.3738 0 31.0342C0 22.6946 3.21279 14.9702 9.09151 9.09151C14.9702 3.21279 22.6946 0 31.0342 0C39.3054 0 47.0981 3.21279 52.9768 9.09151C58.8556 14.9702 62.0684 22.763 62.0684 31.0342C62.0684 32.1279 62 33.29 61.8633 34.3837L54.6174 26.7277C52.6351 15.5854 42.7916 7.04079 31.0342 7.04079C17.7729 7.04079 7.04079 17.7729 6.97244 31.0342C6.97244 44.2955 17.7045 55.0276 30.9658 55.0276C41.2878 55.0276 50.0375 48.5336 53.4553 39.4421L38.4851 24.5402L35.7508 27.2745L30.419 21.806Z" fill="#0266C1"></path>
<path d="M28.2995 34.5204L22.8309 40.2624H11.4153L28.2312 23.6516L45.1838 40.2624H34.52L28.2995 34.5204Z" fill="#0266C1"></path>
</g>
<defs>
<clipPath id="SvgjsClipPath1000">
<rect width="62" height="62" fill="white"></rect>
</clipPath>
</defs>
</svg><style>@media (prefers-color-scheme: light) { :root { filter: none; } }
</style></svg>