<svg width="25" height="25" viewBox="0 0 25 25" fill="none" xmlns="http://www.w3.org/2000/svg">
<g clip-path="url(#clip0_214_45)">
<path d="M23.4153 24.1882L15.5583 5.90763C15.4551 5.66523 15.1749 5.55247 14.9325 5.65569C14.8192 5.70399 14.7289 5.79427 14.6806 5.90763L9.93871 16.9179L7.00963 10.1581C6.90634 9.91574 6.62614 9.80298 6.3838 9.9062C6.27044 9.9545 6.18016 10.0448 6.13186 10.1581L3.37928 16.5172L0.0399368 24.1834C-0.0654315 24.4248 0.0448861 24.7061 0.286333 24.8114C0.347037 24.8379 0.412572 24.8515 0.478822 24.8513H22.9765C23.2399 24.851 23.4533 24.6373 23.4531 24.3738C23.4531 24.31 23.4402 24.2469 23.4153 24.1882ZM15.1147 7.29585L18.2107 14.4945H17.1231L15.1576 12.3239C14.9804 12.129 14.6787 12.1146 14.4837 12.2918C14.4531 12.3196 14.4263 12.3513 14.4039 12.386L13.6692 13.5213H12.4384L15.1147 7.29585ZM6.57074 11.532L9.018 17.1898H7.68226C7.52007 17.1901 7.36914 17.2728 7.28154 17.4093L6.80449 18.1678L5.57371 16.4313C5.48474 16.3031 5.33864 16.2264 5.18253 16.2262H4.54805L6.57074 11.532ZM1.22779 23.8972L4.13302 17.1803H4.93446L6.42285 19.3032C6.51182 19.4314 6.65792 19.5081 6.81403 19.5083C6.97283 19.5048 7.11947 19.4226 7.20522 19.2889L7.93987 18.1535H9.42826L11.9137 23.8781L1.22779 23.8972ZM12.9584 23.8972L10.4587 18.1249L12.0282 14.4754H13.9364C14.0986 14.4751 14.2495 14.3925 14.3371 14.256L14.8666 13.4402L16.5554 15.3055C16.6455 15.4054 16.7738 15.4626 16.9084 15.4629H18.6162L22.2466 23.9115L12.9584 23.8972Z" fill="#2D383F"/>
<path d="M7.61068 2.0817C7.16065 0.922413 5.85598 0.347509 4.69675 0.797605C3.83359 1.13267 3.26357 1.96202 3.26 2.88792C3.25529 2.97056 3.25529 3.05333 3.26 3.13598C2.13213 3.65978 1.6425 4.99874 2.1663 6.1266C2.52904 6.90759 3.30544 7.41332 4.16639 7.42942L4.19024 7.44851H7.52959C9.0116 7.47093 10.2311 6.28767 10.2535 4.80565C10.2759 3.32364 9.0927 2.10412 7.61068 2.0817ZM7.55821 6.50872H4.21886C3.50484 6.58248 2.86625 6.06351 2.79249 5.34949C2.71872 4.63547 3.23769 3.99688 3.95172 3.92311C4.20998 3.87105 4.37719 3.61953 4.32513 3.36121C4.32113 3.34147 4.31594 3.32197 4.3095 3.30295C4.26293 3.16949 4.23878 3.02924 4.23795 2.88792C4.23389 2.17127 4.81148 1.58706 5.52813 1.58295C6.16206 1.57931 6.70578 2.0343 6.81401 2.65893C6.85784 2.90974 7.09094 3.0819 7.34354 3.05011C7.41504 3.0454 7.48671 3.0454 7.55821 3.05011C8.51326 3.05011 9.28751 3.82436 9.28751 4.77942C9.28751 5.73447 8.51326 6.50872 7.55821 6.50872Z" fill="#2D383F"/>
<path d="M23.6967 2.6398C23.7014 2.55715 23.7014 2.47438 23.6967 2.39173C23.6919 1.14818 22.6799 0.143993 21.4363 0.148763C20.5172 0.152341 19.6938 0.714425 19.354 1.56709C17.8795 1.59798 16.7047 2.81374 16.727 4.29039C16.7494 5.7724 17.9689 6.95566 19.451 6.93324H22.7903C24.0337 6.90998 25.0228 5.88325 24.9995 4.63988C24.9834 3.77893 24.4777 3.00253 23.6967 2.6398ZM24.056 4.9474C23.9297 5.5399 23.4103 5.96614 22.8046 5.97437H19.4653C18.5102 5.97437 17.736 5.20012 17.736 4.24507C17.736 3.29001 18.5102 2.51576 19.4653 2.51576C19.5368 2.51105 19.6084 2.51105 19.6799 2.51576C19.9213 2.54081 20.143 2.3807 20.1952 2.14366C20.3147 1.43709 20.9844 0.961238 21.6911 1.0808C22.3976 1.20036 22.8735 1.87008 22.7539 2.57671C22.7418 2.64844 22.7236 2.71905 22.6997 2.78774C22.6154 3.03736 22.7495 3.30802 22.9992 3.39228C23.0183 3.39872 23.0377 3.40397 23.0574 3.4079C23.7584 3.55722 24.2054 4.2465 24.056 4.9474Z" fill="#2D383F"/>
</g>
<defs>
<clipPath id="clip0_214_45">
<rect width="25" height="25" fill="white"/>
</clipPath>
</defs>
</svg>
