<svg width="8" height="12" viewBox="0 0 8 12" fill="none" xmlns="http://www.w3.org/2000/svg">
<path fill-rule="evenodd" clip-rule="evenodd" d="M2.79056 8.80494C1.73764 8.57161 0.770361 8.0384 0 7.26664L0.873887 5.99055C1.27014 6.43637 1.7529 6.79242 2.29124 7.03586C2.82957 7.27931 3.41159 7.40479 4 7.40426C5.23734 7.40426 6.35162 6.85915 7.12611 5.99055L8 7.26664C7.22964 8.0384 6.26236 8.57161 5.20944 8.80494L6.9744 12H5.25677L4 9.72485L2.74323 12H1.0256L2.79056 8.80494ZM4 0C2.35013 0 1.01065 1.37285 1.01065 3.06383C1.01065 4.75481 2.35013 6.12766 4 6.12766C5.64987 6.12766 6.98935 4.75481 6.98935 3.06383C6.98935 1.37285 5.64987 0 4 0ZM4 1.53191C4.82481 1.53191 5.49468 2.21847 5.49468 3.06383C5.49468 3.90919 4.82481 4.59574 4 4.59574C3.17519 4.59574 2.50532 3.90919 2.50532 3.06383C2.50532 2.21847 3.17519 1.53191 4 1.53191Z" fill="white"/>
</svg>
