<svg width="25" height="25" viewBox="0 0 25 25" fill="none" xmlns="http://www.w3.org/2000/svg">
<path d="M24.1583 16.1155C24.904 13.7805 24.2904 11.1301 23.6385 9.29354C23.6342 9.22249 23.6123 9.15362 23.5746 9.09327C23.353 8.49672 23.1484 8.00669 22.9737 7.65302C23.2953 7.52498 23.5075 7.21509 23.5106 6.86898V3.3195C23.5106 2.84882 23.1291 2.46729 22.6584 2.46729H12.1889C11.9536 2.46686 11.7625 2.65728 11.7621 2.89265C11.7621 2.90144 11.7624 2.91023 11.7628 2.91896C11.9077 5.47561 11.7202 7.20987 11.1791 8.4328C11.1683 8.44494 11.1583 8.45778 11.1492 8.47115C11.1476 8.4924 11.1476 8.51381 11.1492 8.53507C10.9427 8.98024 10.6633 9.38776 10.3226 9.74095L10.2842 9.76652C10.2842 9.76652 10.2842 9.76652 10.2842 9.79635C9.78468 10.2728 9.20853 10.6617 8.57981 10.9468C7.48439 11.4329 6.36021 11.8513 5.21355 12.1996L4.99624 12.272C1.01213 13.593 0.492277 15.9877 0.500799 17.1893C0.499734 17.2064 0.499734 17.2234 0.500799 17.2405V20.2829C0.501438 20.4309 0.57883 20.568 0.705331 20.6451C1.68176 21.2392 2.73574 21.6951 3.83722 22.0001C4.06375 22.0638 4.29907 21.9318 4.36278 21.7052C4.37476 21.6625 4.38003 21.6182 4.37838 21.574V21.476H5.00476V21.9021C5.00204 22.1132 5.15433 22.2944 5.36269 22.3282C5.73341 22.3878 6.10412 22.4347 6.46631 22.4645C6.58498 22.4745 6.70243 22.4343 6.79015 22.3537C6.87783 22.2724 6.92731 22.158 6.92651 22.0384V21.5015H7.55289V22.1066C7.55289 22.3419 7.74368 22.5327 7.979 22.5327C8.33693 22.5327 8.69486 22.5327 9.07835 22.4816C9.3003 22.4638 9.47107 22.2781 9.47037 22.0555V21.5015H10.0968V21.8765C10.0937 22.1118 10.282 22.3051 10.5173 22.3081C10.542 22.3084 10.5666 22.3066 10.591 22.3026C11.3732 22.1828 12.1442 21.999 12.8963 21.7529L12.9645 21.7231C15.9472 20.0187 17.8391 21.4206 17.9158 21.4802C17.9902 21.538 18.0816 21.5694 18.1758 21.5697H18.7041C18.9395 21.5697 19.1302 21.3789 19.1302 21.1436V20.4235H19.7396V21.1351C19.7396 21.3704 19.9304 21.5612 20.1657 21.5612H21.5378C21.7731 21.5612 21.9639 21.3704 21.9639 21.1351V20.4235H22.5945V21.1351C22.5945 21.3704 22.7853 21.5612 23.0206 21.5612H24.0731C24.3084 21.5612 24.4992 21.3704 24.4992 21.1351V16.5416C24.5034 16.3359 24.3599 16.1566 24.1583 16.1155ZM14.0468 3.32803H22.6371V6.8562H14.0468V3.32803ZM8.6906 11.8246L8.69486 11.8502C9.04416 12.1338 9.36651 12.449 9.65786 12.7919C9.58058 12.9204 9.54073 13.068 9.54281 13.218C9.53988 13.6675 9.90191 14.0342 10.3514 14.0371C10.8008 14.0401 11.1676 13.678 11.1705 13.2286C11.1733 12.8051 10.8509 12.4504 10.4291 12.4126C10.1596 12.0452 9.85254 11.7067 9.51298 11.4028C9.89377 11.186 10.252 10.932 10.5825 10.6443C10.9958 11.032 11.3803 11.4493 11.733 11.8928C11.5848 12.3171 11.8086 12.7813 12.2329 12.9296C12.6572 13.0778 13.1214 12.854 13.2697 12.4297C13.4179 12.0053 13.1941 11.5412 12.7698 11.3929C12.6817 11.3621 12.5891 11.3467 12.4957 11.3474H12.3935C12.0197 10.8768 11.6125 10.434 11.1748 10.0222C11.3779 9.77211 11.5576 9.50398 11.7117 9.2211C12.3714 9.56449 13.0089 9.94873 13.6207 10.3716C13.6165 10.8258 13.9813 11.1973 14.4354 11.2015C14.8896 11.2058 15.2612 10.8409 15.2654 10.3868C15.2696 9.93259 14.9048 9.56103 14.4506 9.55682C14.3209 9.55559 14.1927 9.5851 14.0766 9.64295C13.4327 9.20704 12.7624 8.81145 12.0696 8.45837C12.5341 7.22265 12.7344 5.58214 12.6406 3.34507H13.1988V6.87324C13.1988 7.34393 13.5803 7.72546 14.051 7.72546H22.0363C22.1471 7.9513 22.3346 8.34332 22.5391 8.85465H22.3644C19.7758 8.87334 17.6925 10.9869 17.7112 13.5756C17.7218 15.0465 18.4224 16.4272 19.6032 17.3044C16.156 18.212 10.9703 19.29 6.60693 19.0088C7.41227 15.7917 6.44927 13.8103 5.82289 12.941C6.7983 12.6211 7.75561 12.2484 8.6906 11.8246ZM4.96641 13.1839C5.42661 13.7251 6.62823 15.5445 5.74619 18.8895C4.21082 18.7688 2.7196 18.3182 1.37432 17.5686C1.35903 17.4712 1.34907 17.373 1.34449 17.2745V17.2447C1.3104 16.3371 1.65129 14.3727 4.96641 13.1839ZM23.4467 20.709V19.9974C23.4467 19.7621 23.2559 19.5713 23.0206 19.5713H21.542C21.3067 19.5713 21.1159 19.7621 21.1159 19.9974V20.709H20.5918V19.9974C20.5918 19.7621 20.401 19.5713 20.1657 19.5713H18.6956C18.4603 19.5713 18.2695 19.7621 18.2695 19.9974V20.6919C17.69 20.3297 15.5722 19.2772 12.5682 20.9561C12.0337 21.1325 11.4886 21.2748 10.9362 21.3822V21.0882C10.9362 20.8529 10.7454 20.6621 10.5101 20.6621H9.04C8.80469 20.6621 8.6139 20.8529 8.6139 21.0882V21.672H8.39658V21.0754C8.39658 20.8401 8.20579 20.6493 7.97047 20.6493H6.49188C6.25656 20.6493 6.06577 20.8401 6.06577 21.0754V21.5825L5.84845 21.5527V21.0754C5.84845 20.8401 5.65767 20.6493 5.42235 20.6493H3.94375C3.72702 20.6478 3.54364 20.8091 3.51764 21.0243C2.76136 20.7753 2.03308 20.4482 1.34449 20.0485V18.523C3.20232 19.5073 5.60557 19.8781 8.16222 19.8781C14.9544 19.8781 22.7266 17.2788 23.6427 16.9677L23.647 20.709H23.4467ZM23.2379 16.2135C22.8757 16.3328 21.9852 16.6396 20.7537 16.9677C18.8473 16.0451 18.0497 13.7516 18.9724 11.8451C19.6036 10.541 20.9158 9.70393 22.3644 9.6813C22.5324 9.67895 22.7003 9.68748 22.8672 9.70686L22.8715 9.71965C23.4979 11.5263 24.0603 14.1043 23.2379 16.2135Z" fill="#2D383F"/>
<path d="M15.6873 3.84365C15.0025 3.84365 14.4473 4.39881 14.4473 5.08362C14.4496 5.76747 15.0034 6.32125 15.6873 6.3236C16.3721 6.3236 16.9272 5.76843 16.9272 5.08362C16.9272 4.39881 16.3721 3.84365 15.6873 3.84365ZM15.6873 5.47138C15.4731 5.47138 15.2995 5.29779 15.2995 5.08362C15.2995 4.86945 15.4731 4.69586 15.6873 4.69586C15.9014 4.69586 16.075 4.86945 16.075 5.08362C16.075 5.29779 15.9014 5.47138 15.6873 5.47138Z" fill="#2D383F"/>
</svg>
