<svg xmlns="http://www.w3.org/2000/svg" xmlns:xlink="http://www.w3.org/1999/xlink">
  <symbol id="left-arrow" viewBox="0 0 14 8">
    <path fill-rule="evenodd" clip-rule="evenodd" d="M3.578.464.396 3.646a.5.5 0 0 0 0 .708l3.182 3.182a.5.5 0 1 0 .708-.708L1.957 4.5H13.75v-1H1.957l2.329-2.328a.5.5 0 1 0-.708-.708Z" />
  </symbol>
  <symbol id="right-arrow" viewBox="0 0 14 8">
    <path fill-rule="evenodd" clip-rule="evenodd" d="m10.422.464 3.182 3.182a.5.5 0 0 1 0 .708l-3.182 3.182a.5.5 0 0 1-.708-.708L12.043 4.5H.25v-1h11.793L9.714 1.172a.5.5 0 1 1 .708-.708Z" />
  </symbol>
  <symbol id="place-ic" viewBox="0 0 9 12">
    <path d="M4.49981 0C2.01874 0 0 1.98191 0 4.41796C0 5.05338 0.132472 5.66006 0.39354 6.2213C1.51862 8.63833 3.67571 11.1902 4.31017 11.9146C4.35771 11.9688 4.42701 12 4.49994 12C4.57287 12 4.64217 11.9688 4.6897 11.9146C5.32392 11.1903 7.48101 8.63857 8.60646 6.2213C8.86765 5.66006 9 5.05338 9 4.41796C8.99975 1.98191 6.98101 0 4.49981 0ZM4.49981 6.71267C3.21099 6.71267 2.16234 5.68315 2.16234 4.41784C2.16234 3.15241 3.21099 2.12289 4.49981 2.12289C5.78864 2.12289 6.83728 3.15241 6.83728 4.41784C6.83741 5.68315 5.78876 6.71267 4.49981 6.71267Z" />
  </symbol>
  <symbol id="sun-ic" viewBox="0 0 22 22">
    <path d="M15.8399 7.10055C14.8505 6.11113 13.4537 5.47092 11.9404 5.47092C10.4272 5.47092 9.03037 6.08203 8.04095 7.10055C7.05154 8.08996 6.41132 9.48679 6.41132 11C6.41132 12.5132 7.05154 13.9101 8.04095 14.8995C9.03037 15.8889 10.4272 16.5291 11.9404 16.5291C13.4537 16.5291 14.8505 15.918 15.8399 14.8995C16.8293 13.9101 17.4695 12.5132 17.4695 11C17.4695 9.48679 16.8584 8.08996 15.8399 7.10055ZM14.7923 13.8519C14.0648 14.5794 13.0462 15.0159 11.9404 15.0159C10.8346 15.0159 9.81609 14.5794 9.08857 13.8519C8.36106 13.1243 7.92455 12.1058 7.92455 11C7.92455 9.89419 8.36106 8.87568 9.08857 8.14817C9.81609 7.42065 10.8346 6.98415 11.9404 6.98415C13.0462 6.98415 14.0648 7.42065 14.7923 8.14817C15.5198 8.87568 15.9563 9.89419 15.9563 11C15.9563 12.1058 15.5198 13.1243 14.7923 13.8519Z" />
    <path d="M22.1838 10.2434H19.9431C19.5357 10.2434 19.1865 10.5926 19.1865 11C19.1865 11.4074 19.5357 11.7566 19.9431 11.7566H22.1838C22.5912 11.7566 22.9404 11.4074 22.9404 11C22.9404 10.5926 22.5912 10.2434 22.1838 10.2434Z" />
    <path d="M11.9404 18.246C11.533 18.246 11.1838 18.5952 11.1838 19.0026V21.2434C11.1838 21.6508 11.533 22 11.9404 22C12.3478 22 12.697 21.6508 12.697 21.2434V19.0026C12.697 18.5952 12.3478 18.246 11.9404 18.246Z" />
    <path d="M19.7103 17.7222L18.1098 16.1216C17.8479 15.8306 17.3531 15.8306 17.0621 16.1216C16.7711 16.4126 16.7711 16.8782 17.0621 17.1693L18.6627 18.7698C18.9537 19.0608 19.4193 19.0608 19.7103 18.7698C20.0013 18.4788 20.0013 18.0132 19.7103 17.7222Z" />
    <path d="M11.9404 0C11.533 0 11.1838 0.349205 11.1838 0.756611V2.99735C11.1838 3.40475 11.533 3.75396 11.9404 3.75396C12.3478 3.75396 12.697 3.40475 12.697 2.99735V0.756611C12.697 0.349205 12.3478 0 11.9404 0Z" />
    <path d="M19.7394 3.23018C19.4484 2.93918 18.9828 2.93918 18.6918 3.23018L17.0912 4.8307C16.8002 5.12171 16.8002 5.58732 17.0912 5.87832C17.3531 6.16932 17.8478 6.16932 18.1388 5.87832L19.7394 4.2778C20.0304 3.98679 20.0304 3.52118 19.7394 3.23018Z" />
    <path d="M3.93778 10.2434H1.69704C1.28964 10.2434 0.94043 10.5926 0.94043 11C0.94043 11.4074 1.26054 11.7566 1.69704 11.7566H3.93778C4.34519 11.7566 4.6944 11.4074 4.6944 11C4.6944 10.5926 4.34519 10.2434 3.93778 10.2434Z" />
    <path d="M6.78964 16.1216C6.52773 15.8306 6.03302 15.8306 5.74202 16.1216L4.14149 17.7222C3.85048 18.0132 3.85048 18.4788 4.14149 18.7698C4.43249 19.0608 4.8981 19.0608 5.18911 18.7698L6.78964 17.1693C7.08064 16.8782 7.08064 16.4126 6.78964 16.1216Z" />
    <path d="M6.78964 4.8307L5.18911 3.23018C4.8981 2.93918 4.43249 2.93918 4.14149 3.23018C3.85048 3.52118 3.85048 3.98679 4.14149 4.2778L5.74202 5.87832C6.03302 6.16932 6.49863 6.16932 6.78964 5.87832C7.08064 5.58732 7.08064 5.12171 6.78964 4.8307Z" />
  </symbol>
  <symbol id="moon-ic" viewBox="0 0 20 20">
    <path d="M19.5272 11.382C19.3228 11.3307 19.1183 11.382 18.9394 11.5103C18.2748 12.0745 17.5081 12.5362 16.6646 12.844C15.8723 13.1518 15.0033 13.3057 14.0831 13.3057C12.0128 13.3057 10.1215 12.4593 8.76681 11.0999C7.41217 9.74052 6.56872 7.84251 6.56872 5.76497C6.56872 4.89291 6.72207 4.0465 6.97767 3.27704C7.25882 2.45628 7.66777 1.71247 8.20451 1.07125C8.43454 0.789119 8.38343 0.378739 8.10227 0.147901C7.92336 0.0196574 7.71888 -0.0316401 7.51441 0.0196573C5.34188 0.609578 3.4505 1.91766 2.09586 3.66177C0.792336 5.38024 0 7.50908 0 9.84311C0 12.6388 1.12461 15.178 2.96487 17.0247C4.80513 18.8715 7.3355 20 10.1215 20C12.4729 20 14.6454 19.1792 16.3835 17.8199C18.147 16.4348 19.425 14.4599 19.9618 12.2028C20.0895 11.8181 19.8851 11.459 19.5272 11.382ZM15.6167 16.7426C14.1342 17.9225 12.2429 18.6406 10.1726 18.6406C7.74444 18.6406 5.54635 17.6403 3.96168 16.0501C2.37701 14.4599 1.3802 12.2541 1.3802 9.81746C1.3802 7.79122 2.04474 5.94451 3.1949 4.45688C3.98724 3.43094 4.98405 2.58453 6.13421 1.99461C6.00642 2.27674 5.87862 2.55888 5.77638 2.86666C5.44411 3.79002 5.29076 4.76467 5.29076 5.79062C5.29076 8.22724 6.28757 10.4587 7.87224 12.0489C9.45691 13.6391 11.6806 14.6394 14.1087 14.6394C15.1822 14.6394 16.2045 14.4599 17.1502 14.1008C17.4825 13.9726 17.8148 13.8443 18.1215 13.6904C17.5081 14.8703 16.6646 15.9219 15.6167 16.7426Z" />
  </symbol>
  <symbol id="vk-ic" viewBox="0 0 12 7">
    <path fill-rule="evenodd" clip-rule="evenodd" d="M6.53558 7C2.436 7 0.0972632 4.37208 0 0H2.05389C2.12147 3.20892 3.63537 4.56867 4.83474 4.84867V0H6.768V2.76792C7.95284 2.64892 9.19642 1.38717 9.61642 0H11.5503C11.2282 1.70917 9.87853 2.97092 8.91916 3.4895C9.87916 3.9095 11.4152 5.01025 12 7H9.87158C9.41432 5.66883 8.27495 4.63867 6.768 4.49867V7H6.53621H6.53558Z" />
  </symbol>
  <symbol id="tg-ic" viewBox="0 0 11 9">
    <path fill-rule="evenodd" clip-rule="evenodd" d="M6.66322 1.36191C4.68848 2.1865 2.71934 3.02408 0.75593 3.87461C0.277086 4.06279 0.0256916 4.24733 0.00267025 4.42733C-0.0360057 4.73096 0.349833 4.85096 0.875642 5.01459L1.09665 5.08368C1.61417 5.25005 2.31033 5.44368 2.67131 5.45186C3.00006 5.45914 3.36564 5.32459 3.76989 5.05187C6.52969 3.2128 7.95334 2.28372 8.04266 2.26281C8.1062 2.24917 8.19368 2.23099 8.25262 2.28372C8.31155 2.33553 8.30603 2.43371 8.29958 2.46008C8.26182 2.62099 6.7461 4.01188 5.96245 4.73187C5.7175 4.9555 5.54438 5.11459 5.50847 5.15187C5.42927 5.23368 5.34824 5.31005 5.27089 5.38368C4.7902 5.84095 4.43014 6.18367 5.29022 6.74367C5.70461 7.01275 6.0352 7.23548 6.36486 7.45729C6.72584 7.70002 7.08589 7.94183 7.55092 8.24274C7.66971 8.32001 7.78298 8.3991 7.89348 8.47728C8.31247 8.77273 8.69002 9.03819 9.15505 8.99546C9.42671 8.97091 9.70573 8.72001 9.84754 7.97002C10.1837 6.19913 10.843 2.3619 10.9958 0.781006C11.0049 0.649562 10.9991 0.517525 10.9783 0.387374C10.9666 0.282487 10.9153 0.185798 10.8347 0.116468C10.7131 0.0191964 10.5262 -0.00171228 10.4424 0.00010588C10.0612 0.00646945 9.47643 0.207376 6.66322 1.36282V1.36191Z" />
  </symbol>

  <symbol id="ok-ic" viewBox="0 0 8 12">
    <path fill-rule="evenodd" clip-rule="evenodd" d="M2.79056 8.80494C1.73764 8.57161 0.770361 8.0384 0 7.26664L0.873887 5.99055C1.27014 6.43637 1.7529 6.79242 2.29124 7.03586C2.82957 7.27931 3.41159 7.40479 4 7.40426C5.23734 7.40426 6.35162 6.85915 7.12611 5.99055L8 7.26664C7.22964 8.0384 6.26236 8.57161 5.20944 8.80494L6.9744 12H5.25677L4 9.72485L2.74323 12H1.0256L2.79056 8.80494ZM4 0C2.35013 0 1.01065 1.37285 1.01065 3.06383C1.01065 4.75481 2.35013 6.12766 4 6.12766C5.64987 6.12766 6.98935 4.75481 6.98935 3.06383C6.98935 1.37285 5.64987 0 4 0ZM4 1.53191C4.82481 1.53191 5.49468 2.21847 5.49468 3.06383C5.49468 3.90919 4.82481 4.59574 4 4.59574C3.17519 4.59574 2.50532 3.90919 2.50532 3.06383C2.50532 2.21847 3.17519 1.53191 4 1.53191Z" />
  </symbol>

</svg>
