<svg width="11" height="9" viewBox="0 0 11 9" fill="none" xmlns="http://www.w3.org/2000/svg">
<path fill-rule="evenodd" clip-rule="evenodd" d="M6.66322 1.36191C4.68848 2.1865 2.71934 3.02408 0.75593 3.87461C0.277086 4.06279 0.0256916 4.24733 0.00267025 4.42733C-0.0360057 4.73096 0.349833 4.85096 0.875642 5.01459L1.09665 5.08368C1.61417 5.25005 2.31033 5.44368 2.67131 5.45186C3.00006 5.45914 3.36564 5.32459 3.76989 5.05187C6.52969 3.2128 7.95334 2.28372 8.04266 2.26281C8.1062 2.24917 8.19368 2.23099 8.25262 2.28372C8.31155 2.33553 8.30603 2.43371 8.29958 2.46008C8.26182 2.62099 6.7461 4.01188 5.96245 4.73187C5.7175 4.9555 5.54438 5.11459 5.50847 5.15187C5.42927 5.23368 5.34824 5.31005 5.27089 5.38368C4.7902 5.84095 4.43014 6.18367 5.29022 6.74367C5.70461 7.01275 6.0352 7.23548 6.36486 7.45729C6.72584 7.70002 7.08589 7.94183 7.55092 8.24274C7.66971 8.32001 7.78298 8.3991 7.89348 8.47728C8.31247 8.77273 8.69002 9.03819 9.15505 8.99546C9.42671 8.97091 9.70573 8.72001 9.84754 7.97002C10.1837 6.19913 10.843 2.3619 10.9958 0.781006C11.0049 0.649562 10.9991 0.517525 10.9783 0.387374C10.9666 0.282487 10.9153 0.185798 10.8347 0.116468C10.7131 0.0191964 10.5262 -0.00171228 10.4424 0.00010588C10.0612 0.00646945 9.47643 0.207376 6.66322 1.36282V1.36191Z" fill="white"/>
</svg>
