<svg width="25" height="25" viewBox="0 0 25 25" fill="none" xmlns="http://www.w3.org/2000/svg">
<path d="M23.6249 17.6365L19.1105 12.472H21.2916C21.5462 12.4714 21.7522 12.2644 21.7516 12.0098C21.7514 11.9084 21.7177 11.8099 21.6559 11.7296L18.0315 6.96623H19.876C20.1306 6.96589 20.3368 6.75919 20.3365 6.50454C20.3364 6.39272 20.2956 6.28476 20.2218 6.20077L15.7858 1.15613C15.6174 0.965109 15.326 0.946837 15.135 1.11532C15.1205 1.12806 15.1069 1.14172 15.0941 1.15613L10.6536 6.19616C10.4829 6.38522 10.4979 6.67682 10.6869 6.84744C10.7725 6.92473 10.884 6.9671 10.9994 6.96623H12.8669L11.751 8.42337L8.76297 5.02492C8.59455 4.8339 8.30312 4.81563 8.1121 4.98411C8.09763 4.99685 8.08403 5.01051 8.07129 5.02492L4.27628 9.33639C4.1082 9.52769 4.12705 9.81906 4.31836 9.98714C4.40234 10.0609 4.5103 10.1017 4.62212 10.1018H6.08387L3.0497 14.0721C2.89944 14.2777 2.94422 14.5662 3.14982 14.7165C3.2266 14.7726 3.31888 14.8037 3.41399 14.8053H5.12013L1.37123 19.1167C1.20569 19.3102 1.22834 19.6013 1.42189 19.7669C1.5042 19.8373 1.60876 19.8765 1.71707 19.8776H6.81705V23.1054C6.81705 23.5994 7.21759 24 7.71162 24H9.11803C9.61207 24.0025 10.0147 23.6041 10.0172 23.11C10.0172 23.1085 10.0172 23.107 10.0172 23.1054V19.8776H13.8445V23.1054C13.8445 23.5994 14.245 24 14.7391 24H16.1455C16.6395 24 17.0401 23.5994 17.0401 23.1054V18.402H23.279C23.5337 18.4017 23.7398 18.195 23.7396 17.9403C23.7394 17.8285 23.6986 17.7205 23.6249 17.6365ZM9.09498 23.0777L7.73929 23.1054L7.71162 19.8776H9.09498V23.0777ZM13.8445 18.9553H2.73153L6.50349 14.6531C6.67422 14.4642 6.6594 14.1726 6.47046 14.0018C6.38239 13.9223 6.26705 13.8797 6.14843 13.883H4.35006L7.38423 9.91279C7.53956 9.71099 7.50193 9.42146 7.30013 9.26612C7.21978 9.20428 7.12133 9.17061 7.01994 9.17038H5.63658L8.4033 6.02094L11.17 9.16116L9.22409 11.7342C9.06875 11.936 9.10639 12.2255 9.30819 12.3809C9.38854 12.4427 9.48699 12.4764 9.58838 12.4766H11.7741L7.25972 17.6412C7.09164 17.8325 7.11049 18.1238 7.3018 18.2919C7.38578 18.3657 7.49374 18.4064 7.60556 18.4066H13.8445V18.9553ZM16.1178 23.0685L14.7667 23.1054L14.7391 18.402H16.1224L16.1178 23.0685ZM8.62003 17.4798L13.1344 12.3152C13.3025 12.1239 13.2836 11.8325 13.0923 11.6645C13.0083 11.5907 12.9004 11.5499 12.7885 11.5498H10.5244L14.1673 6.78179C14.3201 6.57809 14.2788 6.28902 14.0751 6.13622C13.9966 6.07731 13.9012 6.04497 13.803 6.04399H12.0369L15.4584 2.16137L18.8615 6.04399H17.0816C16.8269 6.04463 16.621 6.25156 16.6215 6.50621C16.6218 6.6076 16.6554 6.70605 16.7173 6.7864L20.3371 11.5498H18.0914C17.8368 11.5501 17.6306 11.7568 17.6309 12.0115C17.631 12.1233 17.6718 12.2312 17.7456 12.3152L22.2599 17.4798H8.62003Z" fill="#2D383F"/>
</svg>
